<?xml version="1.0" encoding="UTF-8"?>
<svg xmlns="http://www.w3.org/2000/svg" xmlns:xlink="http://www.w3.org/1999/xlink" width="24px" height="24px" viewBox="0 0 24 24" version="1.1">
<g id="surface1">
<path style=" stroke:none;fill-rule:nonzero;fill:rgb(0%,0%,0%);fill-opacity:1;" d="M 19.199219 24 C 19.199219 13.46875 10.53125 4.800781 0 4.800781 L 0 0 C 13.164062 0 24 10.835938 24 24 Z M 3.289062 17.414062 C 5.105469 17.414062 6.585938 18.894531 6.585938 20.710938 C 6.585938 22.523438 5.097656 24 3.28125 24 C 1.46875 24 0 22.527344 0 20.710938 C 0 18.894531 1.476562 17.414062 3.289062 17.414062 Z M 15.910156 24 L 11.242188 24 C 11.242188 17.832031 6.167969 12.753906 0 12.753906 L 0 8.089844 C 8.726562 8.089844 15.910156 15.273438 15.910156 24 Z M 15.910156 24 "/>
</g>
</svg>
